<mxfile host="65bd71144e">
    <diagram id="cDRcXnmoAfES1kOUO3kZ" name="第 1 页">
        <mxGraphModel dx="1086" dy="719" grid="1" gridSize="10" guides="1" tooltips="1" connect="1" arrows="1" fold="1" page="1" pageScale="1" pageWidth="827" pageHeight="1169" math="0" shadow="0">
            <root>
                <mxCell id="0"/>
                <mxCell id="1" parent="0"/>
                <mxCell id="3" value="QM01&amp;nbsp;AgTD.敏捷测试驱动" style="swimlane;childLayout=stackLayout;resizeParent=1;resizeParentMax=0;startSize=20;html=1;" vertex="1" parent="1">
                    <mxGeometry x="230.00000000000045" y="130" width="363.99999999999955" height="480" as="geometry"/>
                </mxCell>
                <mxCell id="4" value="产品部" style="swimlane;startSize=20;html=1;" vertex="1" parent="3">
                    <mxGeometry y="20" width="120" height="460" as="geometry"/>
                </mxCell>
                <mxCell id="9" style="edgeStyle=none;html=1;exitX=0.5;exitY=1;exitDx=0;exitDy=0;entryX=0.5;entryY=0;entryDx=0;entryDy=0;" edge="1" parent="4" source="7" target="8">
                    <mxGeometry relative="1" as="geometry"/>
                </mxCell>
                <mxCell id="7" value="立项启动" style="ellipse;whiteSpace=wrap;html=1;" vertex="1" parent="4">
                    <mxGeometry x="25" y="30" width="70" height="40" as="geometry"/>
                </mxCell>
                <mxCell id="8" value="&lt;b&gt;产品方案&lt;/b&gt;&lt;br&gt;&lt;font color=&quot;#007fff&quot;&gt;质量方针&lt;/font&gt;" style="rounded=1;whiteSpace=wrap;html=1;" vertex="1" parent="4">
                    <mxGeometry x="24.999999999999545" y="100" width="70" height="40" as="geometry"/>
                </mxCell>
                <mxCell id="30" value="交付评审&lt;br&gt;&lt;font color=&quot;#007fff&quot;&gt;质量简报*&lt;/font&gt;" style="rounded=1;whiteSpace=wrap;html=1;" vertex="1" parent="4">
                    <mxGeometry x="24.99999999999909" y="380" width="70" height="40" as="geometry"/>
                </mxCell>
                <mxCell id="5" value="质量小组" style="swimlane;startSize=20;html=1;" vertex="1" parent="3">
                    <mxGeometry x="120" y="20" width="123.99999999999955" height="460" as="geometry"/>
                </mxCell>
                <mxCell id="14" style="edgeStyle=none;html=1;exitX=0.5;exitY=1;exitDx=0;exitDy=0;entryX=0.5;entryY=0;entryDx=0;entryDy=0;" edge="1" parent="5" source="10" target="13">
                    <mxGeometry relative="1" as="geometry"/>
                </mxCell>
                <mxCell id="10" value="测试计划" style="rounded=1;whiteSpace=wrap;html=1;" vertex="1" parent="5">
                    <mxGeometry x="24.999999999999545" y="100" width="70" height="40" as="geometry"/>
                </mxCell>
                <mxCell id="12" value="PgMP:&lt;br&gt;进度计划" style="text;html=1;strokeColor=none;fillColor=none;align=center;verticalAlign=middle;whiteSpace=wrap;rounded=0;" vertex="1" parent="5">
                    <mxGeometry x="-29.000000000000455" y="86" width="60" height="30" as="geometry"/>
                </mxCell>
                <mxCell id="13" value="&lt;b&gt;模块分包&lt;/b&gt;&lt;br&gt;&lt;font color=&quot;#007fff&quot;&gt;质量策略&lt;/font&gt;" style="rounded=1;whiteSpace=wrap;html=1;fillColor=#f5f5f5;fontColor=#333333;strokeColor=#666666;" vertex="1" parent="5">
                    <mxGeometry x="24.999999999999545" y="170" width="70" height="40" as="geometry"/>
                </mxCell>
                <mxCell id="19" value="PgMP:&lt;br&gt;WBS任务" style="text;html=1;strokeColor=none;fillColor=none;align=center;verticalAlign=middle;whiteSpace=wrap;rounded=0;" vertex="1" parent="5">
                    <mxGeometry x="63.999999999999545" y="140" width="60" height="30" as="geometry"/>
                </mxCell>
                <mxCell id="24" style="edgeStyle=none;html=1;exitX=0.5;exitY=1;exitDx=0;exitDy=0;entryX=0.5;entryY=0;entryDx=0;entryDy=0;fontColor=#000000;fillColor=#d5e8d4;strokeColor=#82b366;" edge="1" parent="5" source="20" target="23">
                    <mxGeometry relative="1" as="geometry"/>
                </mxCell>
                <mxCell id="20" value="&lt;font color=&quot;#000000&quot;&gt;缺陷管理&lt;/font&gt;" style="shape=parallelogram;perimeter=parallelogramPerimeter;whiteSpace=wrap;html=1;fixedSize=1;fontColor=#007FFF;" vertex="1" parent="5">
                    <mxGeometry x="25" y="240" width="70" height="40" as="geometry"/>
                </mxCell>
                <mxCell id="25" style="edgeStyle=none;html=1;exitX=0;exitY=0.5;exitDx=0;exitDy=0;entryX=0;entryY=0.5;entryDx=0;entryDy=0;fontColor=#000000;fillColor=#f8cecc;strokeColor=#b85450;" edge="1" parent="5" source="23" target="13">
                    <mxGeometry relative="1" as="geometry">
                        <Array as="points">
                            <mxPoint x="9.999999999999545" y="330"/>
                            <mxPoint x="9.999999999999545" y="260"/>
                            <mxPoint x="9.999999999999545" y="190"/>
                        </Array>
                    </mxGeometry>
                </mxCell>
                <mxCell id="23" value="&lt;font color=&quot;#000000&quot;&gt;质量回归&lt;/font&gt;" style="shape=parallelogram;perimeter=parallelogramPerimeter;whiteSpace=wrap;html=1;fixedSize=1;fontColor=#007FFF;" vertex="1" parent="5">
                    <mxGeometry x="25" y="310" width="70" height="40" as="geometry"/>
                </mxCell>
                <mxCell id="36" value="&lt;font color=&quot;#ff0000&quot;&gt;缺陷回归&lt;/font&gt;" style="text;html=1;strokeColor=none;fillColor=none;align=center;verticalAlign=middle;whiteSpace=wrap;rounded=0;" vertex="1" parent="5">
                    <mxGeometry x="3.9999999999995453" y="215" width="60" height="30" as="geometry"/>
                </mxCell>
                <mxCell id="6" value="研发部" style="swimlane;startSize=20;html=1;" vertex="1" parent="3">
                    <mxGeometry x="243.99999999999955" y="20" width="120" height="460" as="geometry"/>
                </mxCell>
                <mxCell id="17" style="edgeStyle=none;html=1;exitX=0.5;exitY=1;exitDx=0;exitDy=0;entryX=0.5;entryY=0;entryDx=0;entryDy=0;" edge="1" parent="6" source="15" target="16">
                    <mxGeometry relative="1" as="geometry"/>
                </mxCell>
                <mxCell id="15" value="模块开发" style="rounded=1;whiteSpace=wrap;html=1;" vertex="1" parent="6">
                    <mxGeometry x="24.999999999999545" y="170" width="70" height="40" as="geometry"/>
                </mxCell>
                <mxCell id="16" value="UAT迭代" style="rounded=1;whiteSpace=wrap;html=1;fillColor=#f5f5f5;fontColor=#333333;strokeColor=#666666;" vertex="1" parent="6">
                    <mxGeometry x="24.999999999999545" y="240" width="70" height="40" as="geometry"/>
                </mxCell>
                <mxCell id="27" value="UAT合格" style="rounded=1;whiteSpace=wrap;html=1;" vertex="1" parent="6">
                    <mxGeometry x="24.999999999999545" y="310" width="70" height="40" as="geometry"/>
                </mxCell>
                <mxCell id="33" value="上线发布" style="ellipse;whiteSpace=wrap;html=1;" vertex="1" parent="6">
                    <mxGeometry x="25.000000000000455" y="380" width="70" height="40" as="geometry"/>
                </mxCell>
                <mxCell id="34" value="&lt;font color=&quot;#ff0000&quot;&gt;缺陷跟踪&lt;/font&gt;" style="text;html=1;strokeColor=none;fillColor=none;align=center;verticalAlign=middle;whiteSpace=wrap;rounded=0;" vertex="1" parent="6">
                    <mxGeometry x="-35" y="215" width="60" height="30" as="geometry"/>
                </mxCell>
                <mxCell id="11" style="edgeStyle=none;html=1;exitX=1;exitY=0.5;exitDx=0;exitDy=0;entryX=0;entryY=0.5;entryDx=0;entryDy=0;" edge="1" parent="3" source="8" target="10">
                    <mxGeometry relative="1" as="geometry"/>
                </mxCell>
                <mxCell id="18" style="edgeStyle=none;html=1;exitX=1;exitY=0.5;exitDx=0;exitDy=0;" edge="1" parent="3" source="13" target="15">
                    <mxGeometry relative="1" as="geometry"/>
                </mxCell>
                <mxCell id="21" style="edgeStyle=none;html=1;exitX=0;exitY=0.5;exitDx=0;exitDy=0;entryX=1;entryY=0.5;entryDx=0;entryDy=0;fontColor=#000000;" edge="1" parent="3" source="16" target="20">
                    <mxGeometry relative="1" as="geometry"/>
                </mxCell>
                <mxCell id="22" style="edgeStyle=none;html=1;exitX=0.5;exitY=0;exitDx=0;exitDy=0;entryX=0;entryY=0.5;entryDx=0;entryDy=0;fontColor=#000000;fillColor=#f8cecc;strokeColor=#b85450;dashed=1;" edge="1" parent="3" source="20" target="15">
                    <mxGeometry relative="1" as="geometry">
                        <Array as="points">
                            <mxPoint x="179.99999999999955" y="240"/>
                            <mxPoint x="229.99999999999955" y="240"/>
                            <mxPoint x="229.99999999999955" y="210"/>
                        </Array>
                    </mxGeometry>
                </mxCell>
                <mxCell id="28" style="edgeStyle=none;html=1;exitX=1;exitY=0.5;exitDx=0;exitDy=0;entryX=0;entryY=0.5;entryDx=0;entryDy=0;fontColor=#000000;fillColor=#d5e8d4;strokeColor=#82b366;" edge="1" parent="3" source="23" target="27">
                    <mxGeometry relative="1" as="geometry"/>
                </mxCell>
                <mxCell id="31" style="edgeStyle=none;html=1;exitX=0.5;exitY=1;exitDx=0;exitDy=0;entryX=0.5;entryY=0;entryDx=0;entryDy=0;fontColor=#007FFF;curved=1;" edge="1" parent="3" source="27" target="30">
                    <mxGeometry relative="1" as="geometry">
                        <Array as="points">
                            <mxPoint x="303.99999999999955" y="390"/>
                            <mxPoint x="239.99999999999955" y="390"/>
                            <mxPoint x="179.99999999999955" y="380"/>
                            <mxPoint x="59.999999999999545" y="380"/>
                        </Array>
                    </mxGeometry>
                </mxCell>
                <mxCell id="32" style="edgeStyle=none;curved=1;html=1;exitX=1;exitY=0.5;exitDx=0;exitDy=0;entryX=0;entryY=0.5;entryDx=0;entryDy=0;fontColor=#007FFF;" edge="1" parent="3" source="30">
                    <mxGeometry relative="1" as="geometry">
                        <mxPoint x="268.9999999999991" y="420" as="targetPoint"/>
                    </mxGeometry>
                </mxCell>
            </root>
        </mxGraphModel>
    </diagram>
</mxfile>